<?xml version="1.0" encoding="utf-8"?>
<!-- Generator: Adobe Illustrator 17.0.0, SVG Export Plug-In . SVG Version: 6.00 Build 0)  -->
<!DOCTYPE svg PUBLIC "-//W3C//DTD SVG 1.1//EN" "http://www.w3.org/Graphics/SVG/1.1/DTD/svg11.dtd">
<svg version="1.1" id="Capa_1" xmlns="http://www.w3.org/2000/svg" xmlns:xlink="http://www.w3.org/1999/xlink" x="0px" y="0px"
	 width="193.5px" height="214.205px" viewBox="552.5 0 193.5 214.205" enable-background="new 552.5 0 193.5 214.205"
	 xml:space="preserve">
<g>
	<path fill="#ADADA8" d="M695.069,189.845c0,8.366-6.623,15.148-14.794,15.148h-48.82c-8.17,0-14.794-6.782-14.794-15.148v-24.237
		c0-8.366,6.623-15.148,14.794-15.148h48.82c8.17,0,14.794,6.782,14.794,15.148V189.845z"/>
	<path fill="#FCC003" d="M702.17,110.545L702.17,110.545c1.717-5.258,2.65-10.883,2.65-16.732c0-29.16-23.139-52.8-51.683-52.8
		s-51.683,23.639-51.683,52.8c0,7.79,1.653,15.186,4.617,21.842l0,0l16.866,38.526h64.77l14.361-43.33
		c0.023-0.069,0.046-0.137,0.068-0.206L702.17,110.545z"/>
	<path fill="#F1860E" d="M698.299,51.682c-1.663,2.509-6.04,2.536-9.778,0.059l0,0c-3.738-2.477-5.42-6.518-3.758-9.028
		L695.6,26.357c1.663-2.509,6.04-2.536,9.778-0.059l0,0c3.738,2.477,5.42,6.518,3.758,9.028L698.299,51.682z"/>
	<path fill="#F1860E" d="M660.551,32.587c0.348,2.99-2.981,5.834-7.435,6.351l0,0c-4.454,0.518-8.346-1.486-8.694-4.476
		l-2.266-19.49c-0.348-2.99,2.981-5.834,7.435-6.351l0,0c4.454-0.518,8.346,1.486,8.694,4.476L660.551,32.587z"/>
	<path fill="#F1860E" d="M615.195,44.5c2.307,1.933,1.843,6.287-1.037,9.723l0,0c-2.88,3.437-7.085,4.656-9.392,2.722
		l-15.039-12.602c-2.307-1.933-1.843-6.287,1.037-9.723l0,0c2.88-3.437,7.085-4.656,9.392-2.722L615.195,44.5z"/>
	<path fill="#F1860E" d="M715.96,93.996c-2.733,1.262-6.472-1.015-8.352-5.085l0,0c-1.88-4.071-1.189-8.394,1.544-9.656
		l17.813-8.227c2.733-1.262,6.472,1.015,8.352,5.085l0,0c1.88,4.071,1.189,8.394-1.544,9.656L715.96,93.996z"/>
	<path fill="#F1860E" d="M569.266,93.839c-2.778-1.159-3.631-5.453-1.905-9.591l0,0c1.726-4.138,5.377-6.554,8.155-5.395
		l18.109,7.553c2.778,1.159,3.631,5.453,1.905,9.591l0,0c-1.726,4.138-5.377,6.554-8.155,5.395L569.266,93.839z"/>
	<circle fill="#060707" cx="629.689" cy="82.512" r="6.52"/>
	<circle fill="#060707" cx="673.276" cy="82.512" r="6.52"/>
	<path fill="#060707" d="M674.93,62.803c-9.464,0-17.399,6.53-19.556,15.329h-4.281c-1.836-9.231-9.979-16.19-19.75-16.19
		c-11.123,0-20.139,9.017-20.139,20.139s9.017,20.139,20.139,20.139c10.667,0,19.392-8.295,20.089-18.786h3.371
		c0.262,10.895,9.169,19.648,20.127,19.648c11.123,0,20.139-9.017,20.139-20.139S686.053,62.803,674.93,62.803z M631.343,98.817
		c-9.243,0-16.735-7.493-16.735-16.735c0-9.243,7.493-16.735,16.735-16.735c8.403,0,15.357,6.193,16.552,14.264v3.824h0.124
		C647.33,92.043,640.13,98.817,631.343,98.817z M674.93,99.678c-9.243,0-16.735-7.493-16.735-16.735s7.493-16.735,16.735-16.735
		c9.243,0,16.735,7.493,16.735,16.735S684.173,99.678,674.93,99.678z"/>
	<path fill="#FFFFFF" d="M628.328,78.563c0,0-2.121-2.027-1.666,1.457c0.454,3.484,1.666,1.06,1.666,1.06V78.563z"/>
	<path fill="#FFFFFF" d="M671.652,78.563c0,0-2.121-2.027-1.666,1.457c0.454,3.484,1.666,1.06,1.666,1.06V78.563z"/>
	<path stroke="#724B12" stroke-miterlimit="10" d="M667.437,107.939c-6.825-6.122-14.113-4.98-18.256-3.513
		c-4.057-1.468-11.195-2.61-17.879,3.513c0,0-8.402,7.586-15.624,0.839c0,0,4.412,9.916,13.059,8.856
		c8.647-1.06,0.847,0.079,0.847,0.079s13.727-0.366,19.596-3.363c5.994,2.998,20.01,3.363,20.01,3.363s-7.965-1.14,0.865-0.079
		c8.83,1.06,13.335-8.856,13.335-8.856C676.016,115.525,667.437,107.939,667.437,107.939z"/>
	
		<linearGradient id="SVGID_1_" gradientUnits="userSpaceOnUse" x1="62.663" y1="346.8441" x2="142.949" y2="346.8441" gradientTransform="matrix(1 0 0 -1 554 509.2051)">
		<stop  offset="0.439" style="stop-color:#C6C6C6"/>
		<stop  offset="1" style="stop-color:#F6F6F6"/>
	</linearGradient>
	
		<linearGradient id="SVGID_2_" gradientUnits="userSpaceOnUse" x1="62.163" y1="346.8441" x2="143.449" y2="346.8441" gradientTransform="matrix(1 0 0 -1 554 509.2051)">
		<stop  offset="0" style="stop-color:#C6C6C6"/>
		<stop  offset="0.4244" style="stop-color:#F6F6F6"/>
	</linearGradient>
	<path fill="url(#SVGID_1_)" stroke="url(#SVGID_2_)" stroke-miterlimit="10" d="M696.949,163.99c0,5.291-6.219,9.581-13.89,9.581
		h-52.506c-7.671,0-13.89-4.29-13.89-9.581v-3.258c0-5.291,6.219-9.581,13.89-9.581h52.506c7.671,0,13.89,4.29,13.89,9.581V163.99z"
		/>
	
		<linearGradient id="SVGID_3_" gradientUnits="userSpaceOnUse" x1="61.679" y1="331.4791" x2="141.965" y2="331.4791" gradientTransform="matrix(1 0 0 -1 554 509.2051)">
		<stop  offset="0.439" style="stop-color:#C6C6C6"/>
		<stop  offset="1" style="stop-color:#F6F6F6"/>
	</linearGradient>
	
		<linearGradient id="SVGID_4_" gradientUnits="userSpaceOnUse" x1="61.179" y1="331.4791" x2="142.465" y2="331.4791" gradientTransform="matrix(1 0 0 -1 554 509.2051)">
		<stop  offset="0" style="stop-color:#C6C6C6"/>
		<stop  offset="0.4244" style="stop-color:#F6F6F6"/>
	</linearGradient>
	<path fill="url(#SVGID_3_)" stroke="url(#SVGID_4_)" stroke-miterlimit="10" d="M695.965,179.355c0,5.291-6.219,9.581-13.89,9.581
		h-52.506c-7.671,0-13.89-4.29-13.89-9.581v-3.258c0-5.291,6.219-9.581,13.89-9.581h52.506c7.671,0,13.89,4.29,13.89,9.581V179.355z
		"/>
	
		<linearGradient id="SVGID_5_" gradientUnits="userSpaceOnUse" x1="62.663" y1="315.4221" x2="142.949" y2="315.4221" gradientTransform="matrix(1 0 0 -1 554 509.2051)">
		<stop  offset="0.439" style="stop-color:#C6C6C6"/>
		<stop  offset="1" style="stop-color:#F6F6F6"/>
	</linearGradient>
	
		<linearGradient id="SVGID_6_" gradientUnits="userSpaceOnUse" x1="62.163" y1="315.4221" x2="143.449" y2="315.4221" gradientTransform="matrix(1 0 0 -1 554 509.2051)">
		<stop  offset="0" style="stop-color:#C6C6C6"/>
		<stop  offset="0.4244" style="stop-color:#F6F6F6"/>
	</linearGradient>
	<path fill="url(#SVGID_5_)" stroke="url(#SVGID_6_)" stroke-miterlimit="10" d="M696.949,195.412c0,5.291-6.219,9.581-13.89,9.581
		h-52.506c-7.671,0-13.89-4.29-13.89-9.581v-3.258c0-5.291,6.219-9.581,13.89-9.581h52.506c7.671,0,13.89,4.29,13.89,9.581V195.412z
		"/>
</g>
</svg>
