<?xml version="1.0" encoding="utf-8"?>
<!-- Generator: Adobe Illustrator 17.0.0, SVG Export Plug-In . SVG Version: 6.00 Build 0)  -->
<!DOCTYPE svg PUBLIC "-//W3C//DTD SVG 1.1//EN" "http://www.w3.org/Graphics/SVG/1.1/DTD/svg11.dtd">
<svg version="1.1" id="Capa_1" xmlns="http://www.w3.org/2000/svg" xmlns:xlink="http://www.w3.org/1999/xlink" x="0px" y="0px"
	 width="746px" height="214.205px" viewBox="0 0 746 214.205" enable-background="new 0 0 746 214.205" xml:space="preserve">
<g>
	<g>
		<g enable-background="new    ">
			<g enable-background="new    ">
				<defs>
					<path id="SVGID_1_" enable-background="new    " d="M164.312,193.923l-10.16-2.462c0.258,0.062,0.52,0.098,0.786,0.104
						l10.16,2.462C164.832,194.021,164.57,193.986,164.312,193.923z"/>
				</defs>
				<clipPath id="SVGID_2_">
					<use xlink:href="#SVGID_1_"  overflow="visible"/>
				</clipPath>
				<g clip-path="url(#SVGID_2_)" enable-background="new    ">
					<path fill="#954D16" d="M154.938,191.566l10.16,2.462c-0.266-0.007-0.529-0.042-0.786-0.104l-10.16-2.462
						C154.41,191.524,154.672,191.559,154.938,191.566"/>
				</g>
			</g>
			<g>
				<polygon fill="#B65D1D" points="183.545,62.226 193.705,64.687 192.878,89.301 182.718,86.839 				"/>
			</g>
			<g>
				<polygon fill="#B65D1D" points="181.505,122.902 191.665,125.364 190.548,158.56 180.388,156.098 				"/>
			</g>
			<g>
				<polygon fill="#914B15" points="193.447,123.196 203.607,125.657 191.665,125.364 181.505,122.902 				"/>
			</g>
			<g enable-background="new    ">
				<defs>
					<path id="SVGID_3_" enable-background="new    " d="M195.043,87.184l10.16,2.462c2.909,0.705,4.968,8.58,4.647,18.124
						c-0.335,9.957-3.134,17.965-6.243,17.888l-10.16-2.462c3.109,0.076,5.908-7.931,6.243-17.888
						C200.011,95.764,197.952,87.889,195.043,87.184z"/>
				</defs>
				<clipPath id="SVGID_4_">
					<use xlink:href="#SVGID_3_"  overflow="visible"/>
				</clipPath>
				<g clip-path="url(#SVGID_4_)" enable-background="new    ">
					<path fill="#A4551A" d="M195.043,87.184l10.16,2.462c0.044,0.011,0.088,0.023,0.132,0.037l-10.16-2.462
						C195.131,87.207,195.087,87.194,195.043,87.184"/>
					<path fill="#A8571A" d="M195.174,87.221l10.16,2.462c0.069,0.022,0.137,0.048,0.205,0.078l-10.16-2.462
						C195.312,87.269,195.243,87.243,195.174,87.221"/>
					<path fill="#AC591B" d="M195.379,87.299l10.16,2.462c0.07,0.031,0.139,0.066,0.208,0.106l-10.16-2.462
						C195.519,87.365,195.449,87.33,195.379,87.299"/>
					<path fill="#B05A1C" d="M195.588,87.404l10.16,2.462c0.094,0.054,0.188,0.116,0.28,0.185l-10.16-2.462
						C195.776,87.52,195.682,87.458,195.588,87.404"/>
					<path fill="#B35C1D" d="M195.868,87.589l10.16,2.462c0.127,0.096,0.253,0.206,0.375,0.33l-10.16-2.462
						C196.12,87.795,195.995,87.685,195.868,87.589"/>
					<path fill="#B75E1E" d="M196.243,87.919l10.16,2.462c1.325,1.338,2.378,4.29,2.966,8.157l-10.16-2.462
						C198.621,92.209,197.568,89.257,196.243,87.919"/>
					<path fill="#B35C1D" d="M199.209,96.076l10.16,2.462c0.304,2.002,0.483,4.249,0.51,6.643l-10.16-2.462
						C199.692,100.324,199.513,98.078,199.209,96.076"/>
					<path fill="#B05A1C" d="M199.719,102.719l10.16,2.462c0.01,0.846,0,1.71-0.029,2.588c-0.045,1.335-0.134,2.634-0.262,3.884
						l-10.16-2.462c0.128-1.25,0.217-2.549,0.262-3.884C199.719,104.429,199.729,103.565,199.719,102.719"/>
					<path fill="#AC591B" d="M199.428,109.191l10.16,2.462c-0.176,1.713-0.425,3.332-0.734,4.819l-10.16-2.462
						C199.003,112.523,199.252,110.904,199.428,109.191"/>
					<path fill="#A8571A" d="M198.694,114.011l10.16,2.462c-0.24,1.156-0.517,2.232-0.823,3.212l-10.16-2.462
						C198.177,116.243,198.453,115.166,198.694,114.011"/>
					<path fill="#A4551A" d="M197.87,117.222l10.16,2.462c-0.233,0.745-0.484,1.434-0.749,2.058l-10.16-2.462
						C197.387,118.656,197.637,117.967,197.87,117.222"/>
					<path fill="#A05319" d="M197.122,119.28l10.16,2.462c-0.209,0.493-0.428,0.947-0.654,1.356l-10.16-2.462
						C196.694,120.227,196.912,119.774,197.122,119.28"/>
					<path fill="#9D5118" d="M196.467,120.637l10.16,2.462c-0.186,0.337-0.377,0.644-0.573,0.919l-10.16-2.462
						C196.09,121.28,196.281,120.973,196.467,120.637"/>
					<path fill="#994F17" d="M195.894,121.555l10.16,2.462c-0.182,0.256-0.368,0.484-0.557,0.683l-10.16-2.462
						C195.527,122.04,195.712,121.811,195.894,121.555"/>
					<path fill="#954D16" d="M195.337,122.239l10.16,2.462c-0.603,0.635-1.24,0.973-1.89,0.957l-10.16-2.462
						C194.097,123.212,194.734,122.874,195.337,122.239"/>
				</g>
			</g>
			<g>
				<polygon fill="#914B15" points="217.541,63.061 227.701,65.523 193.705,64.687 183.545,62.226 				"/>
			</g>
			<g enable-background="new    ">
				<defs>
					<path id="SVGID_5_" enable-background="new    " d="M219.537,27.102l10.16,2.462c4.058,0.983,7.001,8.757,6.686,18.122
						c-0.335,9.957-4.226,17.947-8.683,17.837l-10.16-2.462c4.456,0.109,8.348-7.88,8.683-17.837
						C226.538,35.859,223.595,28.085,219.537,27.102z"/>
				</defs>
				<clipPath id="SVGID_6_">
					<use xlink:href="#SVGID_5_"  overflow="visible"/>
				</clipPath>
				<g clip-path="url(#SVGID_6_)" enable-background="new    ">
					<path fill="#A4551A" d="M219.537,27.102l10.16,2.462c0.088,0.021,0.176,0.046,0.263,0.074l-10.16-2.462
						C219.713,27.148,219.625,27.123,219.537,27.102"/>
					<path fill="#A8571A" d="M219.8,27.176l10.16,2.462c0.134,0.043,0.268,0.093,0.399,0.151l-10.16-2.462
						C220.068,27.269,219.935,27.218,219.8,27.176"/>
					<path fill="#AC591B" d="M220.199,27.326l10.16,2.462c0.144,0.063,0.286,0.134,0.426,0.214l-10.16-2.462
						C220.485,27.461,220.343,27.389,220.199,27.326"/>
					<path fill="#B05A1C" d="M220.625,27.541l10.16,2.462c0.176,0.1,0.349,0.214,0.52,0.341l-10.16-2.462
						C220.975,27.755,220.802,27.641,220.625,27.541"/>
					<path fill="#B35C1D" d="M221.145,27.881l10.16,2.462c0.23,0.171,0.455,0.366,0.674,0.582l-10.16-2.462
						C221.6,28.247,221.376,28.052,221.145,27.881"/>
					<path fill="#B75E1E" d="M221.82,28.464l10.16,2.462c1.9,1.88,3.351,5.428,4.021,9.831l-10.16-2.462
						C225.171,33.891,223.719,30.343,221.82,28.464"/>
					<path fill="#B35C1D" d="M225.84,38.295L236,40.757c0.243,1.601,0.383,3.315,0.404,5.102l-10.16-2.462
						C226.223,41.609,226.083,39.896,225.84,38.295"/>
					<path fill="#B05A1C" d="M226.244,43.397l10.16,2.462c0.007,0.601,0,1.21-0.02,1.826c-0.032,0.938-0.095,1.859-0.187,2.757
						l-10.16-2.462c0.092-0.898,0.155-1.819,0.187-2.757C226.244,44.607,226.251,43.998,226.244,43.397"/>
					<path fill="#AC591B" d="M226.036,47.98l10.16,2.462c-0.133,1.296-0.327,2.546-0.573,3.732l-10.16-2.462
						C225.71,50.526,225.903,49.276,226.036,47.98"/>
					<path fill="#A8571A" d="M225.463,51.712l10.16,2.462c-0.216,1.04-0.473,2.031-0.765,2.965l-10.16-2.462
						C224.99,53.744,225.247,52.752,225.463,51.712"/>
					<path fill="#A4551A" d="M224.698,54.677l10.16,2.462c-0.254,0.81-0.535,1.577-0.839,2.292l-10.16-2.462
						C224.163,56.254,224.444,55.487,224.698,54.677"/>
					<path fill="#A05319" d="M223.859,56.969l10.16,2.462c-0.268,0.63-0.554,1.221-0.857,1.768l-10.16-2.462
						C223.304,58.191,223.591,57.6,223.859,56.969"/>
					<path fill="#9D5118" d="M223.002,58.737l10.16,2.462c-0.276,0.499-0.565,0.961-0.866,1.384l-10.16-2.462
						C222.437,59.699,222.726,59.236,223.002,58.737"/>
					<path fill="#994F17" d="M222.136,60.121l10.16,2.462c-0.299,0.42-0.61,0.8-0.93,1.137l-10.16-2.462
						C221.526,60.921,221.837,60.541,222.136,60.121"/>
					<path fill="#954D16" d="M221.206,61.258l10.16,2.462c-1.125,1.183-2.371,1.834-3.665,1.803l-10.16-2.462
						C218.834,63.093,220.081,62.442,221.206,61.258"/>
				</g>
			</g>
			<g>
				<polygon fill="#914B15" points="213.17,192.996 223.33,195.458 165.098,194.027 154.938,191.566 				"/>
			</g>
			<g enable-background="new    ">
				<defs>
					<path id="SVGID_7_" enable-background="new    " d="M215.166,157.037l10.16,2.462c4.059,0.983,7.002,8.766,6.687,18.131
						c-0.335,9.957-4.226,17.938-8.682,17.828l-10.16-2.462c4.456,0.109,8.347-7.871,8.682-17.828
						C222.168,165.803,219.225,158.021,215.166,157.037z"/>
				</defs>
				<clipPath id="SVGID_8_">
					<use xlink:href="#SVGID_7_"  overflow="visible"/>
				</clipPath>
				<g clip-path="url(#SVGID_8_)" enable-background="new    ">
					<path fill="#A4551A" d="M215.166,157.037l10.16,2.462c0.088,0.021,0.176,0.046,0.263,0.074l-10.16-2.462
						C215.342,157.083,215.254,157.059,215.166,157.037"/>
					<path fill="#A8571A" d="M215.429,157.111l10.16,2.462c0.134,0.043,0.267,0.093,0.399,0.151l-10.16-2.462
						C215.696,157.204,215.563,157.154,215.429,157.111"/>
					<path fill="#AC591B" d="M215.828,157.261l10.16,2.462c0.144,0.063,0.286,0.134,0.426,0.214l-10.16-2.462
						C216.113,157.396,215.971,157.324,215.828,157.261"/>
					<path fill="#B05A1C" d="M216.254,157.476l10.16,2.462c0.176,0.1,0.349,0.214,0.519,0.34l-10.16-2.462
						C216.603,157.69,216.43,157.576,216.254,157.476"/>
					<path fill="#B35C1D" d="M216.773,157.816l10.16,2.462c0.23,0.171,0.455,0.366,0.674,0.582l-10.16-2.462
						C217.228,158.182,217.003,157.987,216.773,157.816"/>
					<path fill="#B75E1E" d="M217.447,158.399l10.16,2.462c1.9,1.88,3.352,5.431,4.022,9.837l-10.16-2.462
						C220.8,163.83,219.347,160.279,217.447,158.399"/>
					<path fill="#B35C1D" d="M221.469,168.236l10.16,2.462c0.243,1.602,0.383,3.317,0.404,5.106l-10.16-2.462
						C221.853,171.553,221.713,169.838,221.469,168.236"/>
					<path fill="#B05A1C" d="M221.873,173.342l10.16,2.462c0.007,0.601,0,1.21-0.02,1.826c-0.032,0.938-0.095,1.858-0.187,2.756
						l-10.16-2.462c0.092-0.898,0.155-1.818,0.187-2.756C221.873,174.552,221.88,173.942,221.873,173.342"/>
					<path fill="#AC591B" d="M221.666,177.924l10.16,2.462c-0.133,1.296-0.326,2.544-0.573,3.73l-10.16-2.462
						C221.339,180.468,221.533,179.219,221.666,177.924"/>
					<path fill="#A8571A" d="M221.093,181.654l10.16,2.462c-0.216,1.039-0.472,2.029-0.765,2.962l-10.16-2.462
						C220.62,183.683,220.877,182.692,221.093,181.654"/>
					<path fill="#A4551A" d="M220.328,184.616l10.16,2.462c-0.254,0.81-0.534,1.575-0.838,2.29l-10.16-2.462
						C219.794,186.191,220.075,185.425,220.328,184.616"/>
					<path fill="#A05319" d="M219.49,186.906l10.16,2.462c-0.268,0.63-0.554,1.22-0.856,1.767l-10.16-2.462
						C218.936,188.126,219.222,187.536,219.49,186.906"/>
					<path fill="#9D5118" d="M218.634,188.672l10.16,2.462c-0.276,0.499-0.565,0.961-0.866,1.383l-10.16-2.462
						C218.069,189.634,218.358,189.171,218.634,188.672"/>
					<path fill="#994F17" d="M217.769,190.056l10.16,2.462c-0.299,0.42-0.61,0.8-0.93,1.137l-10.16-2.462
						C217.159,190.856,217.469,190.476,217.769,190.056"/>
					<path fill="#954D16" d="M216.838,191.193l10.16,2.462c-1.126,1.184-2.373,1.835-3.668,1.804l-10.16-2.462
						C214.465,193.028,215.712,192.377,216.838,191.193"/>
				</g>
			</g>
			<g>
				<path fill="#CF6922" d="M218.754,26.998c4.456,0.109,7.805,8.268,7.47,18.225c-0.335,9.957-4.226,17.947-8.683,17.837
					l-33.995-0.835l-0.828,24.614l11.942,0.293c3.109,0.076,5.365,8.217,5.03,18.174c-0.335,9.957-3.134,17.965-6.243,17.888
					l-11.942-0.293l-1.117,33.196l33.995,0.835c4.456,0.109,7.804,8.277,7.469,18.234c-0.335,9.957-4.226,17.938-8.682,17.828
					l-58.232-1.431c-4.465-0.11-7.813-8.269-7.479-18.226l1.865-55.456c-1.122-3.337-1.73-8.308-1.544-13.853
					c0.186-5.545,1.128-10.486,2.473-13.763l1.577-46.873c0.335-9.957,4.226-17.938,8.691-17.828L218.754,26.998z"/>
			</g>
		</g>
	</g>
</g>
<text transform="matrix(1 0 0 1 239.2473 116.1816)"><tspan x="0" y="0" font-family="'ComicSansMS-Bold'" font-size="61.1936">Desarrollo </tspan><tspan x="0" y="73.433" font-family="'ComicSansMS-Bold'" font-size="61.1936">de Software</tspan></text>
<g>
	<g>
		<g enable-background="new    ">
			<g>
				<polygon fill="#B65D1D" points="116.534,43.204 126.694,45.665 124.937,97.895 114.777,95.433 				"/>
			</g>
			<g enable-background="new    ">
				<defs>
					<path id="SVGID_9_" enable-background="new    " d="M129.01,44.491l10.16,2.462c-3.146-0.762-6.486-1.212-9.955-1.297
						c-0.846-0.021-1.692-0.015-2.521,0.01l-10.16-2.462c0.829-0.025,1.676-0.031,2.521-0.01
						C122.524,43.279,125.864,43.728,129.01,44.491z"/>
				</defs>
				<clipPath id="SVGID_10_">
					<use xlink:href="#SVGID_9_"  overflow="visible"/>
				</clipPath>
				<g clip-path="url(#SVGID_10_)" enable-background="new    ">
					<path fill="#954D16" d="M129.01,44.491l10.16,2.462c-3.146-0.762-6.486-1.212-9.955-1.297c-0.846-0.021-1.692-0.015-2.521,0.01
						l-10.16-2.462c0.829-0.025,1.676-0.031,2.521-0.01C122.524,43.279,125.864,43.728,129.01,44.491"/>
				</g>
			</g>
			<g enable-background="new    ">
				<defs>
					<path id="SVGID_11_" enable-background="new    " d="M102.998,198.077l-10.16-2.462c1.006,0.244,2.053,0.385,3.131,0.411
						l10.16,2.462C105.052,198.462,104.004,198.321,102.998,198.077z"/>
				</defs>
				<clipPath id="SVGID_12_">
					<use xlink:href="#SVGID_11_"  overflow="visible"/>
				</clipPath>
				<g clip-path="url(#SVGID_12_)" enable-background="new    ">
					<path fill="#954D16" d="M95.969,196.026l10.16,2.462c-1.077-0.026-2.124-0.167-3.131-0.411l-10.16-2.462
						C93.844,195.859,94.892,196,95.969,196.026"/>
				</g>
			</g>
			<g>
				<polygon fill="#914B15" points="98.99,196.101 109.15,198.562 106.129,198.488 95.969,196.026 				"/>
			</g>
			<g>
				<polygon fill="#B65D1D" points="116.529,124.068 126.689,126.529 124.772,183.522 114.612,181.06 				"/>
			</g>
			<g enable-background="new    ">
				<defs>
					<path id="SVGID_13_" enable-background="new    " d="M114.612,181.06l10.16,2.462c-0.286,8.51-7.273,15.246-15.622,15.041
						l-10.16-2.462C107.339,196.306,114.326,189.57,114.612,181.06z"/>
				</defs>
				<clipPath id="SVGID_14_">
					<use xlink:href="#SVGID_13_"  overflow="visible"/>
				</clipPath>
				<g clip-path="url(#SVGID_14_)" enable-background="new    ">
					<path fill="#B05A1C" d="M114.612,181.06l10.16,2.462c-0.012,0.367-0.037,0.731-0.074,1.091l-10.16-2.462
						C114.575,181.791,114.6,181.427,114.612,181.06"/>
					<path fill="#AC591B" d="M114.538,182.151l10.16,2.462c-0.056,0.545-0.139,1.082-0.249,1.609l-10.16-2.462
						C114.399,183.234,114.482,182.697,114.538,182.151"/>
					<path fill="#A8571A" d="M114.289,183.761l10.16,2.462c-0.106,0.509-0.236,1.009-0.389,1.498l-10.16-2.462
						C114.053,184.769,114.183,184.27,114.289,183.761"/>
					<path fill="#A4551A" d="M113.9,185.259l10.16,2.462c-0.155,0.494-0.334,0.978-0.534,1.45l-10.16-2.462
						C113.566,186.237,113.745,185.753,113.9,185.259"/>
					<path fill="#A05319" d="M113.365,186.708l10.16,2.462c-0.211,0.496-0.447,0.979-0.706,1.446l-10.16-2.462
						C112.918,187.687,113.154,187.204,113.365,186.708"/>
					<path fill="#9D5118" d="M112.66,188.154l10.16,2.462c-0.292,0.527-0.612,1.035-0.96,1.522l-10.16-2.462
						C112.047,189.19,112.368,188.682,112.66,188.154"/>
					<path fill="#994F17" d="M111.7,189.676l10.16,2.462c-0.428,0.599-0.896,1.166-1.401,1.696l-10.16-2.462
						C110.803,190.842,111.272,190.275,111.7,189.676"/>
					<path fill="#954D16" d="M110.298,191.372l10.16,2.462c-2.864,3.007-6.896,4.837-11.309,4.729l-10.16-2.462
						C103.402,196.209,107.435,194.379,110.298,191.372"/>
				</g>
			</g>
			<g enable-background="new    ">
				<defs>
					<path id="SVGID_15_" enable-background="new    " d="M122.868,23.714l10.16,2.462c29.067,7.043,49.781,27.52,48.986,51.168
						c-0.822,24.425-24.348,44.362-55.325,49.186l-10.16-2.462c30.977-4.824,54.503-24.761,55.325-49.186
						C172.649,51.234,151.934,30.756,122.868,23.714z"/>
				</defs>
				<clipPath id="SVGID_16_">
					<use xlink:href="#SVGID_15_"  overflow="visible"/>
				</clipPath>
				<g clip-path="url(#SVGID_16_)" enable-background="new    ">
					<path fill="#A4551A" d="M122.868,23.714l10.16,2.462c1.98,0.48,3.922,1.022,5.82,1.623l-10.16-2.462
						C126.789,24.736,124.848,24.193,122.868,23.714"/>
					<path fill="#A8571A" d="M128.688,25.337l10.16,2.462c2.762,0.875,5.434,1.875,8.002,2.99l-10.16-2.462
						C134.122,27.212,131.45,26.212,128.688,25.337"/>
					<path fill="#AC591B" d="M136.69,28.327l10.16,2.462c2.566,1.114,5.028,2.343,7.374,3.677l-10.16-2.462
						C141.718,30.67,139.255,29.441,136.69,28.327"/>
					<path fill="#B05A1C" d="M144.063,32.004l10.16,2.462c2.44,1.387,4.753,2.888,6.927,4.492l-10.16-2.462
						C148.817,34.892,146.503,33.392,144.063,32.004"/>
					<path fill="#B35C1D" d="M150.99,36.496l10.16,2.462c2.453,1.809,4.728,3.749,6.803,5.803l-10.16-2.462
						C155.718,40.245,153.444,38.305,150.99,36.496"/>
					<path fill="#B75E1E" d="M157.794,42.299l10.16,2.462c7.325,7.249,12.169,15.922,13.623,25.307l-10.16-2.462
						C169.963,58.221,165.119,49.548,157.794,42.299"/>
					<path fill="#B35C1D" d="M171.417,67.606l10.16,2.462c0.277,1.786,0.43,3.597,0.455,5.43l-10.16-2.462
						C171.847,71.204,171.693,69.392,171.417,67.606"/>
					<path fill="#B05A1C" d="M171.872,73.036l10.16,2.462c0.008,0.613,0.002,1.228-0.019,1.845c-0.03,0.89-0.09,1.774-0.18,2.652
						l-10.16-2.462c0.09-0.878,0.15-1.762,0.18-2.652C171.874,74.264,171.881,73.649,171.872,73.036"/>
					<path fill="#AC591B" d="M171.674,77.533l10.16,2.462c-0.137,1.348-0.344,2.681-0.618,3.997l-10.16-2.462
						C171.33,80.214,171.537,78.881,171.674,77.533"/>
					<path fill="#A8571A" d="M171.056,81.53l10.16,2.462c-0.267,1.284-0.598,2.552-0.989,3.802l-10.16-2.462
						C170.459,84.082,170.789,82.814,171.056,81.53"/>
					<path fill="#A4551A" d="M170.067,85.332l10.16,2.462c-0.405,1.292-0.875,2.564-1.408,3.816l-10.16-2.462
						C169.192,87.896,169.662,86.624,170.067,85.332"/>
					<path fill="#A05319" d="M168.659,89.148l10.16,2.462c-0.585,1.374-1.246,2.723-1.978,4.044l-10.16-2.462
						C167.414,91.871,168.074,90.522,168.659,89.148"/>
					<path fill="#9D5118" d="M166.681,93.192l10.16,2.462c-0.852,1.537-1.801,3.035-2.841,4.491l-10.16-2.462
						C164.88,96.227,165.829,94.728,166.681,93.192"/>
					<path fill="#994F17" d="M163.84,97.683l10.16,2.462c-1.385,1.938-2.931,3.802-4.626,5.582l-10.16-2.462
						C160.909,101.485,162.455,99.622,163.84,97.683"/>
					<path fill="#954D16" d="M159.214,103.265l10.16,2.462c-9.993,10.494-25.144,18.071-42.685,20.802l-10.16-2.462
						C134.069,121.336,149.221,113.759,159.214,103.265"/>
				</g>
			</g>
			<g>
				<path fill="#CF6922" d="M106.008,21.252c37.55,2.056,66.788,25.619,65.846,53.63c-0.822,24.425-24.348,44.362-55.325,49.186
					l-1.917,56.992c-0.286,8.51-7.273,15.246-15.622,15.041l-3.021-0.074c-8.34-0.205-14.872-7.273-14.586-15.783L86.23,36.145
					c0.242-7.189,5.262-13.101,11.837-14.648c0.965-0.381,1.935-0.393,2.895-0.388c0.3-0.011,0.591-0.012,0.89-0.005l3.021,0.074
					C105.26,21.188,105.639,21.216,106.008,21.252z M117.294,95.567c19.605,0.482,35.896-10.855,36.382-25.314
					c0.486-14.459-15.016-26.577-34.62-27.059c-0.846-0.021-1.692-0.015-2.521,0.01l-1.757,52.229
					C115.604,95.498,116.448,95.546,117.294,95.567"/>
			</g>
		</g>
	</g>
</g>
<g>
	<g>
		<g enable-background="new    ">
			<g>
				<polygon fill="#B65D1D" points="44.03,43.204 54.19,45.665 52.433,97.895 42.273,95.433 				"/>
			</g>
			<g enable-background="new    ">
				<defs>
					<path id="SVGID_17_" enable-background="new    " d="M56.513,44.49l10.16,2.462c-3.145-0.762-6.485-1.211-9.953-1.297
						c-0.854-0.021-1.692-0.015-2.53,0.01l-10.16-2.462c0.838-0.024,1.676-0.031,2.53-0.01
						C50.028,43.279,53.368,43.728,56.513,44.49z"/>
				</defs>
				<clipPath id="SVGID_18_">
					<use xlink:href="#SVGID_17_"  overflow="visible"/>
				</clipPath>
				<g clip-path="url(#SVGID_18_)" enable-background="new    ">
					<path fill="#954D16" d="M56.513,44.49l10.16,2.462c-3.145-0.762-6.485-1.211-9.953-1.297c-0.854-0.021-1.692-0.015-2.53,0.01
						l-10.16-2.462c0.838-0.024,1.676-0.031,2.53-0.01C50.028,43.279,53.368,43.728,56.513,44.49"/>
				</g>
			</g>
			<g enable-background="new    ">
				<defs>
					<path id="SVGID_19_" enable-background="new    " d="M30.503,198.077l-10.16-2.462c1.006,0.244,2.053,0.385,3.13,0.411
						l10.16,2.462C32.556,198.462,31.509,198.321,30.503,198.077z"/>
				</defs>
				<clipPath id="SVGID_20_">
					<use xlink:href="#SVGID_19_"  overflow="visible"/>
				</clipPath>
				<g clip-path="url(#SVGID_20_)" enable-background="new    ">
					<path fill="#954D16" d="M23.474,196.027l10.16,2.462c-1.077-0.026-2.124-0.167-3.13-0.411l-10.16-2.462
						C21.349,195.859,22.396,196,23.474,196.027"/>
				</g>
			</g>
			<g>
				<polygon fill="#914B15" points="26.494,196.101 36.655,198.563 33.634,198.488 23.474,196.027 				"/>
			</g>
			<g>
				<polygon fill="#B65D1D" points="44.034,124.068 54.194,126.53 52.277,183.522 42.117,181.06 				"/>
			</g>
			<g enable-background="new    ">
				<defs>
					<path id="SVGID_21_" enable-background="new    " d="M42.117,181.06l10.16,2.462c-0.286,8.51-7.282,15.246-15.622,15.041
						l-10.16-2.462C34.835,196.306,41.831,189.57,42.117,181.06z"/>
				</defs>
				<clipPath id="SVGID_22_">
					<use xlink:href="#SVGID_21_"  overflow="visible"/>
				</clipPath>
				<g clip-path="url(#SVGID_22_)" enable-background="new    ">
					<path fill="#B05A1C" d="M42.117,181.06l10.16,2.462c-0.012,0.367-0.037,0.73-0.074,1.09l-10.16-2.462
						C42.08,181.79,42.105,181.427,42.117,181.06"/>
					<path fill="#AC591B" d="M42.043,182.15l10.16,2.462c-0.056,0.545-0.139,1.081-0.249,1.608l-10.16-2.462
						C41.904,183.231,41.987,182.695,42.043,182.15"/>
					<path fill="#A8571A" d="M41.794,183.758l10.16,2.462c-0.106,0.509-0.236,1.008-0.389,1.497l-10.16-2.462
						C41.558,184.766,41.688,184.267,41.794,183.758"/>
					<path fill="#A4551A" d="M41.405,185.255l10.16,2.462c-0.155,0.494-0.333,0.978-0.534,1.449l-10.16-2.462
						C41.072,186.232,41.25,185.749,41.405,185.255"/>
					<path fill="#A05319" d="M40.871,186.704l10.16,2.462c-0.211,0.496-0.447,0.979-0.705,1.446l-10.16-2.462
						C40.424,187.682,40.66,187.2,40.871,186.704"/>
					<path fill="#9D5118" d="M40.165,188.15l10.16,2.462c-0.292,0.527-0.613,1.036-0.961,1.523l-10.16-2.462
						C39.553,189.186,39.874,188.677,40.165,188.15"/>
					<path fill="#994F17" d="M39.205,189.672l10.16,2.462c-0.428,0.599-0.897,1.167-1.402,1.697l-10.16-2.462
						C38.308,190.839,38.777,190.272,39.205,189.672"/>
					<path fill="#954D16" d="M37.803,191.369l10.16,2.462c-2.865,3.008-6.899,4.84-11.308,4.731l-10.16-2.462
						C30.904,196.209,34.938,194.378,37.803,191.369"/>
				</g>
			</g>
			<g enable-background="new    ">
				<defs>
					<path id="SVGID_23_" enable-background="new    " d="M50.366,23.713l10.16,2.462c29.063,7.042,49.779,27.52,48.984,51.168
						c-0.822,24.425-24.348,44.362-55.316,49.187l-10.16-2.462c30.968-4.824,54.494-24.761,55.316-49.187
						C100.145,51.233,79.429,30.755,50.366,23.713z"/>
				</defs>
				<clipPath id="SVGID_24_">
					<use xlink:href="#SVGID_23_"  overflow="visible"/>
				</clipPath>
				<g clip-path="url(#SVGID_24_)" enable-background="new    ">
					<path fill="#A4551A" d="M50.366,23.713l10.16,2.462c1.98,0.48,3.921,1.022,5.819,1.623l-10.16-2.462
						C54.287,24.735,52.346,24.193,50.366,23.713"/>
					<path fill="#A8571A" d="M56.185,25.336l10.16,2.462c2.762,0.875,5.433,1.875,8.001,2.99l-10.16-2.462
						C61.618,27.21,58.947,26.21,56.185,25.336"/>
					<path fill="#AC591B" d="M64.185,28.325l10.16,2.462c2.565,1.114,5.027,2.343,7.373,3.677l-10.16-2.462
						C69.213,30.668,66.751,29.439,64.185,28.325"/>
					<path fill="#B05A1C" d="M71.558,32.002l10.16,2.462c2.439,1.387,4.753,2.888,6.927,4.491l-10.16-2.462
						C76.312,34.891,73.998,33.39,71.558,32.002"/>
					<path fill="#B35C1D" d="M78.485,36.494l10.16,2.462c2.453,1.81,4.728,3.749,6.804,5.803l-10.16-2.462
						C83.213,40.243,80.939,38.303,78.485,36.494"/>
					<path fill="#B75E1E" d="M85.289,42.297l10.16,2.462c7.326,7.25,12.17,15.922,13.624,25.309l-10.16-2.462
						C97.459,58.22,92.615,49.547,85.289,42.297"/>
					<path fill="#B35C1D" d="M98.913,67.606l10.16,2.462c0.277,1.786,0.43,3.598,0.455,5.43l-10.16-2.462
						C99.343,71.204,99.19,69.392,98.913,67.606"/>
					<path fill="#B05A1C" d="M99.368,73.036l10.16,2.462c0.008,0.613,0.002,1.228-0.019,1.845c-0.03,0.89-0.09,1.774-0.18,2.652
						l-10.16-2.462c0.09-0.878,0.15-1.762,0.18-2.652C99.371,74.264,99.377,73.649,99.368,73.036"/>
					<path fill="#AC591B" d="M99.17,77.533l10.16,2.462c-0.137,1.348-0.344,2.681-0.618,3.997l-10.16-2.462
						C98.826,80.214,99.033,78.881,99.17,77.533"/>
					<path fill="#A8571A" d="M98.552,81.53l10.16,2.462c-0.267,1.284-0.598,2.552-0.989,3.802l-10.16-2.462
						C97.955,84.082,98.285,82.814,98.552,81.53"/>
					<path fill="#A4551A" d="M97.563,85.332l10.16,2.462c-0.405,1.292-0.875,2.565-1.408,3.816l-10.16-2.462
						C96.688,87.897,97.158,86.624,97.563,85.332"/>
					<path fill="#A05319" d="M96.155,89.148l10.16,2.462c-0.585,1.375-1.246,2.724-1.978,4.045l-10.16-2.462
						C94.909,91.872,95.57,90.523,96.155,89.148"/>
					<path fill="#9D5118" d="M94.177,93.193l10.16,2.462c-0.852,1.537-1.801,3.035-2.842,4.492l-10.16-2.462
						C92.376,96.228,93.325,94.729,94.177,93.193"/>
					<path fill="#994F17" d="M91.336,97.684l10.16,2.462c-1.385,1.939-2.932,3.803-4.627,5.583l-10.16-2.462
						C88.404,101.487,89.951,99.623,91.336,97.684"/>
					<path fill="#954D16" d="M86.709,103.267l10.16,2.462c-9.992,10.493-25.141,18.069-42.675,20.801l-10.16-2.462
						C61.568,121.336,76.717,113.76,86.709,103.267"/>
				</g>
			</g>
			<g>
				<path fill="#CF6922" d="M33.512,21.252c37.542,2.056,66.779,25.619,65.837,53.629c-0.822,24.425-24.348,44.362-55.316,49.187
					l-1.917,56.992c-0.286,8.51-7.282,15.246-15.622,15.041l-3.021-0.074c-8.34-0.205-14.872-7.273-14.586-15.783l4.847-144.098
					c0.242-7.189,5.253-13.101,11.828-14.648c0.974-0.381,1.935-0.393,2.904-0.387c0.291-0.011,0.591-0.012,0.89-0.005l3.021,0.074
					C32.757,21.188,33.135,21.216,33.512,21.252z M44.798,95.567c19.604,0.482,35.887-10.855,36.373-25.315
					c0.486-14.459-15.007-26.577-34.612-27.059c-0.854-0.021-1.692-0.015-2.53,0.01l-1.757,52.229
					C43.109,95.498,43.944,95.546,44.798,95.567"/>
			</g>
		</g>
	</g>
</g>
<g>
	<path fill="#ADADA8" d="M695.069,189.845c0,8.366-6.623,15.148-14.794,15.148h-48.82c-8.17,0-14.794-6.782-14.794-15.148v-24.237
		c0-8.366,6.623-15.148,14.794-15.148h48.82c8.17,0,14.794,6.782,14.794,15.148V189.845z"/>
	<path fill="#FCC003" d="M702.17,110.545l-0.001,0c1.718-5.258,2.651-10.883,2.651-16.732c0-29.16-23.139-52.8-51.683-52.8
		s-51.683,23.639-51.683,52.8c0,7.79,1.653,15.186,4.617,21.842l0,0l16.866,38.526h64.77l14.361-43.33
		c0.023-0.069,0.046-0.137,0.068-0.206L702.17,110.545z"/>
	<path fill="#F1860E" d="M698.299,51.682c-1.663,2.509-6.04,2.536-9.778,0.059l0,0c-3.738-2.477-5.42-6.518-3.758-9.028
		L695.6,26.357c1.663-2.509,6.04-2.536,9.778-0.059l0,0c3.738,2.477,5.42,6.518,3.758,9.028L698.299,51.682z"/>
	<path fill="#F1860E" d="M660.551,32.587c0.348,2.99-2.981,5.834-7.435,6.351l0,0c-4.454,0.518-8.346-1.486-8.694-4.476
		l-2.266-19.49c-0.348-2.99,2.981-5.834,7.435-6.351l0,0c4.454-0.518,8.346,1.486,8.694,4.476L660.551,32.587z"/>
	<path fill="#F1860E" d="M615.195,44.5c2.307,1.933,1.843,6.287-1.037,9.723l0,0c-2.88,3.437-7.085,4.656-9.392,2.722
		l-15.039-12.602c-2.307-1.933-1.843-6.287,1.037-9.723l0,0c2.88-3.437,7.085-4.656,9.392-2.722L615.195,44.5z"/>
	<path fill="#F1860E" d="M715.96,93.996c-2.733,1.262-6.472-1.015-8.352-5.085l0,0c-1.88-4.071-1.189-8.394,1.544-9.656
		l17.813-8.227c2.733-1.262,6.472,1.015,8.352,5.085l0,0c1.88,4.071,1.189,8.394-1.544,9.656L715.96,93.996z"/>
	<path fill="#F1860E" d="M569.266,93.839c-2.778-1.159-3.631-5.453-1.905-9.591l0,0c1.726-4.138,5.377-6.554,8.155-5.395
		l18.109,7.553c2.778,1.159,3.631,5.453,1.905,9.591l0,0c-1.726,4.138-5.377,6.554-8.155,5.395L569.266,93.839z"/>
	<circle fill="#060707" cx="629.689" cy="82.512" r="6.52"/>
	<circle fill="#060707" cx="673.276" cy="82.512" r="6.52"/>
	<path fill="#060707" d="M674.93,62.803c-9.464,0-17.399,6.53-19.556,15.329h-4.281c-1.836-9.231-9.979-16.19-19.75-16.19
		c-11.123,0-20.139,9.017-20.139,20.139s9.017,20.139,20.139,20.139c10.667,0,19.392-8.295,20.089-18.786h3.371
		c0.262,10.895,9.169,19.648,20.127,19.648c11.123,0,20.139-9.017,20.139-20.139S686.053,62.803,674.93,62.803z M631.343,98.817
		c-9.243,0-16.735-7.493-16.735-16.735c0-9.243,7.493-16.735,16.735-16.735c8.403,0,15.357,6.193,16.552,14.264v3.824h0.124
		C647.33,92.043,640.13,98.817,631.343,98.817z M674.93,99.678c-9.243,0-16.735-7.493-16.735-16.735s7.493-16.735,16.735-16.735
		c9.243,0,16.735,7.493,16.735,16.735S684.173,99.678,674.93,99.678z"/>
	<path fill="#FFFFFF" d="M628.328,78.563c0,0-2.121-2.027-1.666,1.457c0.454,3.484,1.666,1.06,1.666,1.06V78.563z"/>
	<path fill="#FFFFFF" d="M671.652,78.563c0,0-2.121-2.027-1.666,1.457c0.454,3.484,1.666,1.06,1.666,1.06V78.563z"/>
	<path stroke="#724B12" stroke-miterlimit="10" d="M667.437,107.939c-6.825-6.122-14.113-4.98-18.256-3.513
		c-4.057-1.468-11.195-2.61-17.879,3.513c0,0-8.402,7.586-15.624,0.839c0,0,4.412,9.916,13.059,8.856
		c8.647-1.06,0.847,0.079,0.847,0.079s13.727-0.366,19.596-3.363c5.994,2.998,20.01,3.363,20.01,3.363s-7.965-1.14,0.865-0.079
		c8.83,1.06,13.335-8.856,13.335-8.856C676.016,115.525,667.437,107.939,667.437,107.939z"/>
	<linearGradient id="SVGID_25_" gradientUnits="userSpaceOnUse" x1="616.6627" y1="162.3611" x2="696.9492" y2="162.3611">
		<stop  offset="0.439" style="stop-color:#C6C6C6"/>
		<stop  offset="1" style="stop-color:#F6F6F6"/>
	</linearGradient>
	<linearGradient id="SVGID_26_" gradientUnits="userSpaceOnUse" x1="616.1627" y1="162.3611" x2="697.4492" y2="162.3611">
		<stop  offset="0" style="stop-color:#C6C6C6"/>
		<stop  offset="0.4244" style="stop-color:#F6F6F6"/>
	</linearGradient>
	<path fill="url(#SVGID_25_)" stroke="url(#SVGID_26_)" stroke-miterlimit="10" d="M696.949,163.99c0,5.291-6.219,9.581-13.89,9.581
		h-52.506c-7.671,0-13.89-4.29-13.89-9.581v-3.258c0-5.291,6.219-9.581,13.89-9.581h52.506c7.671,0,13.89,4.29,13.89,9.581V163.99z"
		/>
	<linearGradient id="SVGID_27_" gradientUnits="userSpaceOnUse" x1="615.678" y1="177.7262" x2="695.9646" y2="177.7262">
		<stop  offset="0.439" style="stop-color:#C6C6C6"/>
		<stop  offset="1" style="stop-color:#F6F6F6"/>
	</linearGradient>
	<linearGradient id="SVGID_28_" gradientUnits="userSpaceOnUse" x1="615.178" y1="177.7262" x2="696.4646" y2="177.7262">
		<stop  offset="0" style="stop-color:#C6C6C6"/>
		<stop  offset="0.4244" style="stop-color:#F6F6F6"/>
	</linearGradient>
	<path fill="url(#SVGID_27_)" stroke="url(#SVGID_28_)" stroke-miterlimit="10" d="M695.965,179.355
		c0,5.291-6.219,9.581-13.89,9.581h-52.506c-7.671,0-13.89-4.29-13.89-9.581v-3.258c0-5.291,6.219-9.581,13.89-9.581h52.506
		c7.671,0,13.89,4.29,13.89,9.581V179.355z"/>
	<linearGradient id="SVGID_29_" gradientUnits="userSpaceOnUse" x1="616.6627" y1="193.7834" x2="696.9492" y2="193.7834">
		<stop  offset="0.439" style="stop-color:#C6C6C6"/>
		<stop  offset="1" style="stop-color:#F6F6F6"/>
	</linearGradient>
	<linearGradient id="SVGID_30_" gradientUnits="userSpaceOnUse" x1="616.1627" y1="193.7834" x2="697.4492" y2="193.7834">
		<stop  offset="0" style="stop-color:#C6C6C6"/>
		<stop  offset="0.4244" style="stop-color:#F6F6F6"/>
	</linearGradient>
	<path fill="url(#SVGID_29_)" stroke="url(#SVGID_30_)" stroke-miterlimit="10" d="M696.949,195.412
		c0,5.291-6.219,9.581-13.89,9.581h-52.506c-7.671,0-13.89-4.29-13.89-9.581v-3.258c0-5.291,6.219-9.581,13.89-9.581h52.506
		c7.671,0,13.89,4.29,13.89,9.581V195.412z"/>
</g>
</svg>
